<svg width="20" height="20" viewBox="0 0 20 20" fill="none" xmlns="http://www.w3.org/2000/svg">
<path d="M13.0312 7.34198C13.0312 7.13498 12.8633 6.96798 12.6562 6.96798C12.4492 6.96898 12.2812 7.13698 12.2812 7.34398C12.2812 7.55098 12.4492 7.71898 12.6562 7.71798C12.8633 7.71798 13.0312 7.54998 13.0312 7.34298" stroke="#797C7B" stroke-width="1.5" stroke-linecap="round" stroke-linejoin="round"/>
<path fill-rule="evenodd" clip-rule="evenodd" d="M10.499 12.785L9.469 13.817H7.637V15.286H6.172V17.122L4.798 18.5H1.5V15.195L7.223 9.45899C6.417 7.36499 6.849 4.90299 8.534 3.21399C10.814 0.928994 14.511 0.928994 16.791 3.21399C19.071 5.49899 19.071 9.20399 16.791 11.49C15.089 13.194 12.601 13.624 10.499 12.785Z" stroke="#797C7B" stroke-width="1.5" stroke-linecap="round" stroke-linejoin="round"/>
</svg>
